<?xml version="1.0" encoding="UTF-8" standalone="no"?><svg xmlns="http://www.w3.org/2000/svg" xmlns:xlink="http://www.w3.org/1999/xlink" contentScriptType="application/ecmascript" contentStyleType="text/css" height="138px" preserveAspectRatio="none" style="width:572px;height:138px;" version="1.1" viewBox="0 0 572 138" width="572px" zoomAndPan="magnify"><defs><filter height="300%" id="fdpcouocm96q3" width="300%" x="-1" y="-1"><feGaussianBlur result="blurOut" stdDeviation="4.0"/><feColorMatrix in="blurOut" result="blurOut2" type="matrix" values="0 0 0 0 0 0 0 0 0 0 0 0 0 0 0 0 0 0 .4 0"/><feOffset dx="8.0" dy="8.0" in="blurOut2" result="blurOut3"/><feBlend in="SourceGraphic" in2="blurOut3" mode="normal"/></filter></defs><g><!--MD5=[7e859ad449ea8daca7c7ac79202ce19d]
class Singer--><rect codeLine="2" fill="#FEFECE" filter="url(#fdpcouocm96q3)" height="96" id="Singer" style="stroke:#A80036;stroke-width:3.0;" width="134" x="14" y="14"/><ellipse cx="44" cy="46" fill="#ADD1B2" rx="22" ry="22" style="stroke:#A80036;stroke-width:2.0;"/><path d="M48.9463,58.2861 Q47.7842,58.8838 46.5059,59.1826 Q45.2275,59.4814 43.8164,59.4814 Q38.8027,59.4814 36.1631,56.1777 Q33.5234,52.874 33.5234,46.6318 Q33.5234,40.373 36.1631,37.0693 Q38.8027,33.7656 43.8164,33.7656 Q45.2275,33.7656 46.5225,34.0645 Q47.8174,34.3633 48.9463,34.9609 L48.9463,40.4063 Q47.6846,39.2441 46.4976,38.7046 Q45.3105,38.165 44.0488,38.165 Q41.3594,38.165 39.9897,40.2983 Q38.6201,42.4316 38.6201,46.6318 Q38.6201,50.8154 39.9897,52.9487 Q41.3594,55.082 44.0488,55.082 Q45.3105,55.082 46.4976,54.5425 Q47.6846,54.0029 48.9463,52.8408 Z " fill="#000000"/><text fill="#000000" font-family="sans-serif" font-size="24" lengthAdjust="spacing" textLength="70" x="72" y="55.0703">Singer</text><line style="stroke:#A80036;stroke-width:3.0;" x1="16" x2="146" y1="78" y2="78"/><line style="stroke:#A80036;stroke-width:3.0;" x1="16" x2="146" y1="94" y2="94"/><!--MD5=[7560274dc4d8b0cfc2c0496e7291d5fc]
class Album--><rect codeLine="4" fill="#FEFECE" filter="url(#fdpcouocm96q3)" height="96" id="Album" style="stroke:#A80036;stroke-width:3.0;" width="138" x="218" y="14"/><ellipse cx="248" cy="46" fill="#ADD1B2" rx="22" ry="22" style="stroke:#A80036;stroke-width:2.0;"/><path d="M252.9463,58.2861 Q251.7842,58.8838 250.5059,59.1826 Q249.2275,59.4814 247.8164,59.4814 Q242.8027,59.4814 240.1631,56.1777 Q237.5234,52.874 237.5234,46.6318 Q237.5234,40.373 240.1631,37.0693 Q242.8027,33.7656 247.8164,33.7656 Q249.2275,33.7656 250.5225,34.0645 Q251.8174,34.3633 252.9463,34.9609 L252.9463,40.4063 Q251.6846,39.2441 250.4976,38.7046 Q249.3105,38.165 248.0488,38.165 Q245.3594,38.165 243.9897,40.2983 Q242.6201,42.4316 242.6201,46.6318 Q242.6201,50.8154 243.9897,52.9487 Q245.3594,55.082 248.0488,55.082 Q249.3105,55.082 250.4976,54.5425 Q251.6846,54.0029 252.9463,52.8408 Z " fill="#000000"/><text fill="#000000" font-family="sans-serif" font-size="24" lengthAdjust="spacing" textLength="74" x="276" y="55.0703">Album</text><line style="stroke:#A80036;stroke-width:3.0;" x1="220" x2="354" y1="78" y2="78"/><line style="stroke:#A80036;stroke-width:3.0;" x1="220" x2="354" y1="94" y2="94"/><!--MD5=[562c4b801d528848837ef3b38203ac7d]
class Song--><rect codeLine="6" fill="#FEFECE" filter="url(#fdpcouocm96q3)" height="96" id="Song" style="stroke:#A80036;stroke-width:3.0;" width="118" x="426" y="14"/><ellipse cx="456" cy="46" fill="#ADD1B2" rx="22" ry="22" style="stroke:#A80036;stroke-width:2.0;"/><path d="M460.9463,58.2861 Q459.7842,58.8838 458.5059,59.1826 Q457.2275,59.4814 455.8164,59.4814 Q450.8027,59.4814 448.1631,56.1777 Q445.5234,52.874 445.5234,46.6318 Q445.5234,40.373 448.1631,37.0693 Q450.8027,33.7656 455.8164,33.7656 Q457.2275,33.7656 458.5225,34.0645 Q459.8174,34.3633 460.9463,34.9609 L460.9463,40.4063 Q459.6846,39.2441 458.4976,38.7046 Q457.3105,38.165 456.0488,38.165 Q453.3594,38.165 451.9897,40.2983 Q450.6201,42.4316 450.6201,46.6318 Q450.6201,50.8154 451.9897,52.9487 Q453.3594,55.082 456.0488,55.082 Q457.3105,55.082 458.4976,54.5425 Q459.6846,54.0029 460.9463,52.8408 Z " fill="#000000"/><text fill="#000000" font-family="sans-serif" font-size="24" lengthAdjust="spacing" textLength="54" x="484" y="55.0703">Song</text><line style="stroke:#A80036;stroke-width:3.0;" x1="428" x2="542" y1="78" y2="78"/><line style="stroke:#A80036;stroke-width:3.0;" x1="428" x2="542" y1="94" y2="94"/><!--MD5=[e99c914cc35d2102773e4fd5d2b45c23]
reverse link Singer to Album--><path codeLine="8" d="M175.08,62 C189.32,62 203.56,62 217.8,62 " fill="none" id="Singer-backto-Album" style="stroke:#A80036;stroke-width:2.0;"/><polygon fill="#FFFFFF" points="148.6,62,160.6,70,172.6,62,160.6,54,148.6,62" style="stroke:#A80036;stroke-width:2.0;"/><!--MD5=[db05bc461641caf9aa18f4420b6179f6]
reverse link Album to Song--><path codeLine="9" d="M383.1,62 C397.34,62 411.58,62 425.82,62 " fill="none" id="Album-backto-Song" style="stroke:#A80036;stroke-width:2.0;"/><polygon fill="#FFFFFF" points="356.6,62,368.6,70,380.6,62,368.6,54,356.6,62" style="stroke:#A80036;stroke-width:2.0;"/><!--MD5=[2d357a7393f2f8f5c09d3ddc1042de90]
@startuml

class Singer {}

class Album {}

class Song {}

Singer o- Album
Album o- Song

@enduml

PlantUML version 1.2021.01(Tue Feb 02 16:55:08 KST 2021)
(GPL source distribution)
Java Runtime: OpenJDK Runtime Environment
JVM: OpenJDK 64-Bit Server VM
Default Encoding: UTF-8
Language: ko
Country: KR
--></g></svg>