<?xml version="1.0" encoding="UTF-8" standalone="no"?><svg xmlns="http://www.w3.org/2000/svg" xmlns:xlink="http://www.w3.org/1999/xlink" contentScriptType="application/ecmascript" contentStyleType="text/css" height="177px" preserveAspectRatio="none" style="width:190px;height:177px;" version="1.1" viewBox="0 0 190 177" width="190px" zoomAndPan="magnify"><defs><filter height="300%" id="fhqi6uqsl3357" width="300%" x="-1" y="-1"><feGaussianBlur result="blurOut" stdDeviation="2.0"/><feColorMatrix in="blurOut" result="blurOut2" type="matrix" values="0 0 0 0 0 0 0 0 0 0 0 0 0 0 0 0 0 0 .4 0"/><feOffset dx="4.0" dy="4.0" in="blurOut2" result="blurOut3"/><feBlend in="SourceGraphic" in2="blurOut3" mode="normal"/></filter></defs><g><!--MD5=[7e859ad449ea8daca7c7ac79202ce19d]
class Singer--><rect codeLine="1" fill="#FEFECE" filter="url(#fhqi6uqsl3357)" height="48" id="Singer" style="stroke:#A80036;stroke-width:1.5;" width="72" x="57" y="7"/><ellipse cx="72" cy="23" fill="#ADD1B2" rx="11" ry="11" style="stroke:#A80036;stroke-width:1.0;"/><path d="M74.9688,28.6406 Q74.3906,28.9375 73.75,29.0781 Q73.1094,29.2344 72.4063,29.2344 Q69.9063,29.2344 68.5781,27.5938 Q67.2656,25.9375 67.2656,22.8125 Q67.2656,19.6875 68.5781,18.0313 Q69.9063,16.375 72.4063,16.375 Q73.1094,16.375 73.75,16.5313 Q74.4063,16.6875 74.9688,16.9844 L74.9688,19.7031 Q74.3438,19.125 73.75,18.8594 Q73.1563,18.5781 72.5313,18.5781 Q71.1875,18.5781 70.5,19.6563 Q69.8125,20.7188 69.8125,22.8125 Q69.8125,24.9063 70.5,25.9844 Q71.1875,27.0469 72.5313,27.0469 Q73.1563,27.0469 73.75,26.7813 Q74.3438,26.5 74.9688,25.9219 L74.9688,28.6406 Z " fill="#000000"/><text fill="#000000" font-family="sans-serif" font-size="12" lengthAdjust="spacingAndGlyphs" textLength="40" x="86" y="27.1543">Singer</text><line style="stroke:#A80036;stroke-width:1.5;" x1="58" x2="128" y1="39" y2="39"/><line style="stroke:#A80036;stroke-width:1.5;" x1="58" x2="128" y1="47" y2="47"/><!--MD5=[7560274dc4d8b0cfc2c0496e7291d5fc]
class Album--><rect codeLine="3" fill="#FEFECE" filter="url(#fhqi6uqsl3357)" height="48" id="Album" style="stroke:#A80036;stroke-width:1.5;" width="70" x="7" y="115"/><ellipse cx="22" cy="131" fill="#ADD1B2" rx="11" ry="11" style="stroke:#A80036;stroke-width:1.0;"/><path d="M24.9688,136.6406 Q24.3906,136.9375 23.75,137.0781 Q23.1094,137.2344 22.4063,137.2344 Q19.9063,137.2344 18.5781,135.5938 Q17.2656,133.9375 17.2656,130.8125 Q17.2656,127.6875 18.5781,126.0313 Q19.9063,124.375 22.4063,124.375 Q23.1094,124.375 23.75,124.5313 Q24.4063,124.6875 24.9688,124.9844 L24.9688,127.7031 Q24.3438,127.125 23.75,126.8594 Q23.1563,126.5781 22.5313,126.5781 Q21.1875,126.5781 20.5,127.6563 Q19.8125,128.7188 19.8125,130.8125 Q19.8125,132.9063 20.5,133.9844 Q21.1875,135.0469 22.5313,135.0469 Q23.1563,135.0469 23.75,134.7813 Q24.3438,134.5 24.9688,133.9219 L24.9688,136.6406 Z " fill="#000000"/><text fill="#000000" font-family="sans-serif" font-size="12" lengthAdjust="spacingAndGlyphs" textLength="38" x="36" y="135.1543">Album</text><line style="stroke:#A80036;stroke-width:1.5;" x1="8" x2="76" y1="147" y2="147"/><line style="stroke:#A80036;stroke-width:1.5;" x1="8" x2="76" y1="155" y2="155"/><!--MD5=[562c4b801d528848837ef3b38203ac7d]
class Song--><rect codeLine="5" fill="#FEFECE" filter="url(#fhqi6uqsl3357)" height="48" id="Song" style="stroke:#A80036;stroke-width:1.5;" width="64" x="112" y="115"/><ellipse cx="127" cy="131" fill="#ADD1B2" rx="11" ry="11" style="stroke:#A80036;stroke-width:1.0;"/><path d="M129.9688,136.6406 Q129.3906,136.9375 128.75,137.0781 Q128.1094,137.2344 127.4063,137.2344 Q124.9063,137.2344 123.5781,135.5938 Q122.2656,133.9375 122.2656,130.8125 Q122.2656,127.6875 123.5781,126.0313 Q124.9063,124.375 127.4063,124.375 Q128.1094,124.375 128.75,124.5313 Q129.4063,124.6875 129.9688,124.9844 L129.9688,127.7031 Q129.3438,127.125 128.75,126.8594 Q128.1563,126.5781 127.5313,126.5781 Q126.1875,126.5781 125.5,127.6563 Q124.8125,128.7188 124.8125,130.8125 Q124.8125,132.9063 125.5,133.9844 Q126.1875,135.0469 127.5313,135.0469 Q128.1563,135.0469 128.75,134.7813 Q129.3438,134.5 129.9688,133.9219 L129.9688,136.6406 Z " fill="#000000"/><text fill="#000000" font-family="sans-serif" font-size="12" lengthAdjust="spacingAndGlyphs" textLength="32" x="141" y="135.1543">Song</text><line style="stroke:#A80036;stroke-width:1.5;" x1="113" x2="175" y1="147" y2="147"/><line style="stroke:#A80036;stroke-width:1.5;" x1="113" x2="175" y1="155" y2="155"/><!--MD5=[e99c914cc35d2102773e4fd5d2b45c23]
reverse link Singer to Album--><path codeLine="7" d="M75.9001,67.2115 C68.4958,82.8913 60.0277,100.8238 53.4072,114.8436 " fill="none" id="Singer-backto-Album" style="stroke:#A80036;stroke-width:1.0;"/><polygon fill="#FFFFFF" points="81.5546,55.2373,75.3756,58.9548,76.4306,66.0883,82.6096,62.3708,81.5546,55.2373" style="stroke:#A80036;stroke-width:1.0;"/><!--MD5=[acf7daba16c6c82829175cc41e229505]
reverse link Singer to Song--><path codeLine="8" d="M110.0999,67.2115 C117.5042,82.8913 125.9723,100.8238 132.5928,114.8436 " fill="none" id="Singer-backto-Song" style="stroke:#A80036;stroke-width:1.0;"/><polygon fill="#FFFFFF" points="104.4454,55.2373,103.3904,62.3708,109.5694,66.0883,110.6244,58.9548,104.4454,55.2373" style="stroke:#A80036;stroke-width:1.0;"/><!--MD5=[db05bc461641caf9aa18f4420b6179f6]
reverse link Album to Song--><path codeLine="9" d="M90.1035,139 C97.3486,139 104.5936,139 111.8386,139 " fill="none" id="Album-backto-Song" style="stroke:#A80036;stroke-width:1.0;"/><polygon fill="#FFFFFF" points="77.0625,139,83.0625,143,89.0625,139,83.0625,135,77.0625,139" style="stroke:#A80036;stroke-width:1.0;"/><!--MD5=[c45e0bcb06a224dc514fe70024d77789]
@startuml
class Singer {}

class Album {}

class Song {}

Singer o-down- Album
Singer o-down- Song
Album o- Song
@enduml

PlantUML version 1.2020.22(Sun Dec 06 09:36:27 UTC 2020)
(GPL source distribution)
Java Runtime: OpenJDK Runtime Environment
JVM: OpenJDK 64-Bit Server VM
Default Encoding: UTF-8
Language: en
Country: US
--></g></svg>